<?xml version="1.0" encoding="utf-8"?>
<!-- Generator: Adobe Illustrator 16.0.0, SVG Export Plug-In . SVG Version: 6.00 Build 0)  -->
<!DOCTYPE svg PUBLIC "-//W3C//DTD SVG 1.1//EN" "http://www.w3.org/Graphics/SVG/1.1/DTD/svg11.dtd">
<svg version="1.1" id="Layer_1" xmlns="http://www.w3.org/2000/svg" xmlns:xlink="http://www.w3.org/1999/xlink" x="0px" y="0px"
	 width="70px" height="70px" viewBox="0 0 70 70" enable-background="new 0 0 70 70" xml:space="preserve">
<g>
	<g>
		<path fill-rule="evenodd" clip-rule="evenodd" d="M27.155,38.051l7.026-5.45H20.778L27.155,38.051z M42.838,38.051l6.373-5.45
			H35.809L42.838,38.051z M61.289,28.79L55.64,2.625l-7.368,11.651l-13.257-5.77V8.489l-0.02,0.009l-0.02-0.009v0.018l-13.25,5.77
			L14.36,2.625L8.711,28.79l-8.33,38.585h14.902l1.818-14.791l17.892-3.329l17.9,3.329l1.818,14.791h14.908L61.289,28.79z
			 M35.021,41.151v-0.009l-0.027,0.004l-0.027-0.004v0.009L18.17,43.889l1.85-15.042H34.97h0.049h14.956l1.849,15.042L35.021,41.151
			z"/>
	</g>
</g>
</svg>
